<svg width="14" height="14" viewBox="0 0 14 14" fill="none" xmlns="http://www.w3.org/2000/svg">
<path d="M14 7C14 10.877 10.8788 14 7 14C3.12124 14 0 10.877 0 7C0 3.123 3.12124 0 7 0C10.8788 0 14 3.12124 14 7ZM6.30912 11.2067C5.52004 11.2067 4.89579 10.5824 4.89579 9.79334V9.10246L1.54309 5.74975C1.44489 6.14429 1.37826 6.57214 1.37826 6.99825C1.37826 9.85646 3.51403 12.2237 6.30737 12.5516V11.2049L6.30912 11.2067ZM12.6182 7C12.6182 4.66608 11.1716 2.62851 9.10246 1.80787V2.10421C9.10246 2.85997 8.47821 3.48422 7.68913 3.48422H6.30912V5.57791L4.20666 5.58667V7.77154L9.10246 6.70716V9.79334H9.79334C10.4509 9.79334 10.9436 10.2212 11.14 10.7788C12.0606 9.79334 12.6182 8.44489 12.6182 7Z" fill="white"/>
</svg>
